<svg xmlns="http://www.w3.org/2000/svg" width="140.87" height="136.06" viewBox="0 0 37.27 36"><path d="M23.26 0l-1.02.43.7 1.74-1.92-.56.55 1.93-1.74-.7-.43 1.02 3.7 1.42-.54-2.13 2.11.55zm6.7 3.35h-.13c-.3.04-.47.2-.44.47 0 .06-.01.14-.03.16l-.36.17c-.5.2-.65.28-.8.43-.27.26-.27.51 0 .9.24.37.24.37-.05.22a3.03 3.03 0 0 1-.29-.17c-.03-.03.06-.11-3.42 2.87a195.17 195.17 0 0 1-3.5 2.97l.2.14c.3.2.83.62 1.04.83l.18.2-.37-.2a5.54 5.54 0 0 0-1.62-.53 6.24 6.24 0 0 0-2.3.32c-.38.13-.86.38-1.1.58-.2.15-11.42 11.52-12.37 12.53-.62.64-.7.75-.8.93-.12.23-.12.33-.02.63.17.5.7 1.28 1.52 2.21.4.47 1.67 1.7 2.15 2.09a8.7 8.7 0 0 0 1.37.96 1 1 0 0 0 .5.16c.29 0 .49-.06.77-.25.25-.16-.3.38 7.89-7.68 2.75-2.71 5.05-5 5.12-5.08.35-.43.65-1.06.82-1.7l.25-1.12c.18-.87.31-1.28.52-1.57.13-.19 5.67-6.62 5.9-6.85.06-.06.1-.07.22-.06.41.04.75-.29 1.1-1.08l.1-.25.18-.05c.2-.05.37-.2.38-.32.02-.2-.04-.33-.33-.68a19.16 19.16 0 0 0-1.82-1.8zm-10.82.37l-2.11 2.1 2.65 2.66 2.2-2.2-.68-.67-1.41 1.42-.64-.65 1.3-.36-.97-.97-.35 1.32-.64-.65 1.33-1.33zm10.22.96c.06 0 .12.03.17.1l.03.02c.1.13.08.22-.08.35-.18.15-.4.22-.56.18a.43.43 0 0 1-.15-.06c-.07-.07-.12-.25-.1-.29.03-.02.13-.02.23-.01.21.02.25 0 .3-.16.03-.09.09-.13.16-.13zm-1.48 1.85h.02l.01.04c0 .12-.22.38-.92 1.08-.64.64-1.68 1.57-2.38 2.14a13.9 13.9 0 0 1-1.5 1.09c-.2.08-.21.07-.05-.18.12-.2 1.5-1.57 2.18-2.16.93-.82 2.26-1.86 2.54-1.97a.38.38 0 0 1 .1-.04zm-11.05.11l-.13.01c-.39.06-.78.29-1.2.7l-1.12 1.13 2.65 2.65.78-.78-.83-.84 1.93-.05.2-1.08-1.23.06.03-.11c.16-.56.07-1-.26-1.33a1.1 1.1 0 0 0-.82-.36zm-.24 1.03c.13 0 .25.05.35.15a.9.9 0 0 1 .07.09c.19.26.14.53-.15.82l-.34.33-.78-.79.33-.33c.16-.16.31-.25.47-.26h.05zm19.39.82l-1.09.24.33 1.87-1.88-.32-.24 1.09-.31-.31-.79.78.94.94-.93.93-.94-.94-.78.78 2.65 2.66.78-.78-1.55-1.55 1.02.08-.08-1.02 1.55 1.55.78-.78-2.34-2.34 2.48.39.9.9.8-.78-.91-.9zm-22.09.92a.99.99 0 0 0-.25.04 2 2 0 0 0-.76.52l-1.16 1.17 2.65 2.65 1.1-1.1c.25-.24.43-.46.55-.64.11-.19.18-.36.2-.53a1 1 0 0 0-.26-.86.8.8 0 0 0-.8-.24c-.13.03-.25.08-.4.16l-.06.04.02-.04.02-.1c.05-.15.05-.3.01-.44a.79.79 0 0 0-.2-.37.86.86 0 0 0-.65-.26zm-.2.97c.1 0 .18.04.26.12.17.17.15.37-.08.59l-.31.32-.53-.53.32-.32.06-.05c.1-.1.19-.14.28-.13zm1.23.91a.3.3 0 0 1 .22.1c.06.06.1.13.1.21a.4.4 0 0 1-.03.21.88.88 0 0 1-.18.23l-.07.07-.35.35-.53-.52.39-.39.2-.17a.46.46 0 0 1 .25-.09zm-3.52.17l-2.11 2.11 2.65 2.66 2.2-2.2-.68-.67-1.42 1.4-.64-.64 1.3-.36-.96-.97-.35 1.32-.65-.64 1.33-1.34zm8.52 1c.2 0 .41.07.65.2l.16.1c.03.04.05.06.06.1.06.14.04.25-.07.36-.12.12-.3.12-.53 0-.15-.09-.38-.11-.45-.05a.54.54 0 0 1-.17.03c-.13 0-.17 0-.25-.09-.2-.2-.1-.47.23-.58.13-.05.25-.07.37-.07zm1.52.8c.07 0 .13.01.17.05.08.08.07.25-.01.34a.2.2 0 0 1-.19.06.31.31 0 0 1-.15-.05c-.08-.08-.07-.26.01-.34.04-.04.1-.06.17-.07zm-12.68.52l.28 3.17-3.17-.28 2.81 2.81.78-.78-.87-.87 1.64.31-.32-1.64.87.88.79-.79zm21.4.51l-.13.01c-.37.05-.77.29-1.21.72l-1.08 1.08 2.66 2.65.78-.78-.72-.72.33-.33c.4-.4.63-.8.67-1.18.04-.38-.09-.73-.39-1.03a1.26 1.26 0 0 0-.9-.42zm-11.96.51l2.31 2.31-1.3 1.3-.32-.31 1-1-1.98-2zm11.75.48c.13 0 .25.05.36.16.24.25.24.53-.02.84l-.09.1-.31.3-.8-.79.33-.32c.19-.19.37-.29.53-.3zm-2.5 1.87a2.12 2.12 0 0 0-1.52.66c-.44.43-.66.91-.67 1.46-.01.54.18 1 .57 1.4.4.4.86.58 1.4.57a2.08 2.08 0 0 0 1.46-.66c.44-.43.66-.91.67-1.45 0-.55-.18-1.01-.57-1.4-.1-.1-.2-.18-.33-.27-.3-.2-.65-.31-1.02-.31zm-11.64.01l.39.09c-.01.28-.06.55-.15.8l-.43-.1c.1-.24.16-.5.2-.79zm-.64.43l.74.74c.29-.09.63-.24 1.03-.46l.17.39c0 .07-.04.08-.11.03-.25.12-.52.23-.8.32l.45.46-.28.28-.3-.3-.66.67.42.42-.29.28-.41-.42-1.45 1.45-.25-.25 1.45-1.45-.34-.34-.34.34c-.5.5-1.03.73-1.59.7v-.42c.55-.02 1-.2 1.35-.55l.33-.32-.42-.42.28-.28.42.42.66-.67-.34-.34zm-9.45.29l-.26.01c-.47.06-.9.28-1.26.64-.43.43-.65.92-.66 1.47-.01.54.18 1 .58 1.4.39.4.86.58 1.4.57a2.08 2.08 0 0 0 1.46-.66c.43-.43.65-.92.66-1.46.01-.54-.18-1-.57-1.4l-.33-.26c-.3-.21-.64-.31-1.02-.31zm21.58.32c.26 0 .5.1.7.3.2.2.3.44.3.7 0 .27-.1.5-.3.7-.2.2-.42.3-.69.3a1 1 0 0 1-.7-.31.98.98 0 0 1-.3-.7c0-.27.1-.5.3-.7.2-.2.42-.3.69-.3zm-11.82.26l-.66.67.34.34.67-.67zm1.77.08l1.7 1.7-.28.28-1.08-1.08-.58.52.77.77-1.96 1.95c-.06.07-.06.14 0 .21l.05.04c.04.04.11.02.22-.07l.27-.24.18.39-.33.24c-.23.16-.41.18-.55.04l-.2-.2c-.18-.19-.18-.36 0-.54l.04-.05-1.3-.65c-.13.05-.17 0-.1-.13l.17-.38.31.22 2.73-2.4-.34-.34zm-11.67.39c.26 0 .5.1.7.3.2.2.3.44.3.7.01.27-.09.5-.29.7-.2.2-.43.3-.7.3a1 1 0 0 1-.69-.32.98.98 0 0 1-.31-.7c0-.26.1-.5.3-.69.2-.2.43-.3.69-.3zm18.6.76l-.07.04-.05.04-.14.1-.37.33-.3.29c-.34.34-.52.67-.56 1-.04.3.06.57.29.8.15.16.32.25.5.3.18.04.4.03.69-.03l.17-.04.18-.05.07-.02.21-.06.06-.02.03-.01.18-.05.16-.03c.06 0 .1.02.14.05.04.04.05.08.04.13 0 .05-.04.12-.12.21l-.07.08-.1.1-.05.07c-.23.23-.47.44-.72.64l-.13.1.61.6.08-.05.06-.05a4.17 4.17 0 0 0 .5-.42c.33-.32.57-.6.73-.81.15-.22.25-.41.28-.58a.94.94 0 0 0-.02-.48 1.03 1.03 0 0 0-.58-.61 1.07 1.07 0 0 0-.63-.09 3 3 0 0 0-.32.06l-.16.05-.28.07h-.02l-.15.05-.1.02-.08.02-.08.02a.84.84 0 0 1-.16.02.12.12 0 0 1-.08-.03c-.04-.04-.05-.1-.04-.16l.06-.12.05-.06.07-.07.05-.06.06-.05a8.78 8.78 0 0 1 .5-.46l.13-.1.08-.08zm-7.47.53l-.49.43.38.1c-.08.38-.2.72-.38 1.03l1.03-1.02zm-14.22.14l-.78.78.94.94-.93.93-.94-.94-.78.78 2.65 2.66.78-.78-1.55-1.55 1.02.08-.08-1.02 1.55 1.55.78-.78zm13.7.32l-1.25 1.11.83.45.43-.43-.4-.13c.18-.37.32-.7.4-1zm-4.05.66l2.16 2.16.1.01v.57l-.13-.05a8.31 8.31 0 0 1-1.66-.24l-.34.34 1.48 1.49-.33.32-1.48-1.48-1.15 1.16c-.16.15-.32.15-.48 0l-.42-.43.25-.4.34.34c.04.04.08.04.12 0l1-1.01-1.52-1.53.32-.32 1.53 1.52.67-.66.23.32c.34.08.66.12.98.12l-1.95-1.95zm9.84 1.26a2.12 2.12 0 0 0-1.52.66c-.43.43-.65.92-.66 1.46-.01.54.18 1.01.58 1.4.39.4.86.59 1.4.58a2.08 2.08 0 0 0 1.46-.66c.43-.43.65-.92.66-1.46.01-.54-.18-1-.57-1.4-.09-.09-.2-.18-.33-.26-.3-.21-.64-.32-1.02-.32zm-.14 1.05c.26 0 .5.1.7.3.2.21.3.45.3.71.01.26-.09.5-.29.7-.2.2-.43.3-.7.3a1 1 0 0 1-.69-.32.98.98 0 0 1-.31-.7c0-.26.1-.5.3-.7.2-.2.43-.3.69-.29zm-4 2.36l-.79.78 2.65 2.65 1.94-1.93-.67-.68L19.8 28zm-13.15.69c.33.02 1.44.9 2.58 2.06l.26.26c.7.73 1 1.09 1.36 1.58.73 1.03.3 1-1-.07a38.1 38.1 0 0 1-2.2-2.16c-.77-.87-1.2-1.53-1.08-1.65.02-.02.04-.03.08-.02zm12 .46l-.79.78 2.66 2.65.78-.78zm-1.16 1.15l-.78.78.94.93-.93.94-.94-.94-.78.78 2.65 2.65.78-.78-1.55-1.55 1.02.09-.09-1.02 1.56 1.55.78-.78zm-2.61 3.23h-.14c-.37.05-.77.3-1.21.73l-1.08 1.08L13.14 36l.79-.78-.72-.72.33-.33c.4-.4.62-.8.67-1.18.04-.39-.09-.73-.39-1.03a1.26 1.26 0 0 0-.9-.42zm-.22.99c.12 0 .24.05.35.16.25.25.25.52-.02.84l-.08.1-.31.3-.8-.8.32-.3c.2-.2.37-.3.54-.3z"/></svg>