<?xml version="1.0" standalone="no"?>
<!DOCTYPE svg PUBLIC "-//W3C//DTD SVG 20010904//EN"
 "http://www.w3.org/TR/2001/REC-SVG-20010904/DTD/svg10.dtd">
<svg version="1.0" xmlns="http://www.w3.org/2000/svg"
 width="1180.000000pt" height="1180.000000pt" viewBox="0 0 1180.000000 1180.000000"
 preserveAspectRatio="xMidYMid meet">
<metadata>
Created by potrace 1.11, written by Peter Selinger 2001-2013
</metadata>
<g transform="translate(0.000000,1180.000000) scale(0.100000,-0.100000)"
fill="#000000" stroke="none">
<path d="M0 5895 l0 -3845 1129 0 c894 0 1130 3 1133 13 2 6 3 1014 3 2240 -1
1225 2 2226 5 2225 4 -2 25 -23 46 -49 21 -25 62 -71 89 -103 28 -32 58 -68
68 -80 19 -23 86 -102 102 -120 6 -6 30 -36 55 -66 25 -30 54 -65 65 -77 11
-12 27 -30 35 -39 8 -10 32 -38 53 -63 22 -25 56 -66 77 -91 254 -300 458
-541 567 -666 10 -12 54 -65 98 -118 44 -53 83 -96 88 -96 10 0 19 9 82 85 28
33 52 62 55 65 7 7 102 119 126 149 10 13 24 28 29 35 6 6 35 40 65 76 30 36
57 67 60 70 3 3 41 48 85 100 44 52 82 97 85 100 3 3 35 40 70 84 36 43 80 94
98 114 17 19 44 51 60 70 15 20 41 51 59 71 17 20 60 70 94 111 34 41 65 77
68 80 3 3 53 61 111 130 58 69 113 134 123 145 11 11 30 35 44 53 14 17 28 32
32 32 3 0 6 -1007 6 -2237 l0 -2238 1133 -3 1132 -2 0 1043 0 1044 588 1 c323
1 632 4 687 6 127 5 279 15 330 22 22 3 66 7 98 9 58 5 102 10 167 20 19 3 51
7 70 9 32 4 50 7 115 20 11 2 40 7 65 11 64 10 79 13 98 19 9 3 31 8 47 11 48
8 68 12 110 24 22 6 51 12 65 15 14 2 25 5 25 6 0 1 7 3 15 5 44 11 221 64
230 70 5 3 18 8 27 10 10 1 60 19 110 39 51 20 95 36 98 36 13 0 305 146 373
186 75 46 171 107 202 131 8 6 47 35 85 64 94 72 132 105 255 229 114 115 132
135 200 225 25 33 47 62 50 65 10 9 90 131 90 136 0 2 12 23 27 47 32 51 128
242 138 277 4 14 11 30 15 35 13 19 93 266 89 277 0 2 4 16 10 31 6 15 13 42
16 60 4 18 10 51 15 73 5 23 11 56 14 75 2 19 7 45 10 59 19 82 30 264 30 490
1 326 -16 491 -79 790 -8 36 -47 174 -51 182 -3 4 -7 18 -9 30 -20 104 -204
494 -267 564 -10 11 -18 26 -18 32 0 7 -4 12 -8 12 -5 0 -15 12 -23 28 -8 15
-16 29 -19 32 -3 3 -33 39 -67 81 -90 111 -290 309 -312 309 -6 0 -11 4 -11 8
0 5 -30 30 -67 57 -38 27 -72 53 -78 57 -82 65 -333 201 -492 268 -89 38 -176
70 -189 70 -8 0 -14 5 -14 12 0 6 -3 9 -6 5 -3 -3 -18 -1 -33 5 -47 19 -266
83 -321 94 -14 3 -50 11 -80 19 -31 8 -73 17 -95 20 -22 3 -47 8 -55 11 -8 3
-28 8 -45 10 -16 2 -41 6 -55 9 -14 3 -43 8 -65 11 -22 3 -62 9 -90 14 -27 5
-72 12 -100 15 -27 3 -63 8 -80 11 -43 6 -172 18 -320 30 -38 3 -97 8 -130 11
-33 3 -868 7 -1855 10 l-1795 4 0 -1358 0 -1357 -1350 0 -1350 0 -2 1339 c0
737 -1 1348 -2 1358 -1 16 -62 17 -1131 17 l-1130 0 0 -3845z m8310 2180 c69
-3 141 -8 160 -10 19 -2 60 -6 90 -9 30 -3 66 -8 80 -11 14 -3 36 -8 50 -10
14 -2 36 -7 50 -10 14 -3 36 -8 50 -11 62 -12 247 -78 315 -112 52 -26 143
-83 185 -117 64 -51 158 -158 190 -214 19 -34 41 -69 48 -76 7 -8 12 -16 12
-17 -2 -5 11 -42 21 -60 10 -20 49 -160 55 -198 22 -156 22 -377 -1 -490 -11
-54 -16 -85 -15 -90 3 -15 -74 -216 -95 -250 -14 -22 -25 -42 -25 -46 0 -13
-91 -131 -129 -168 -23 -21 -41 -43 -41 -47 0 -5 -6 -9 -14 -9 -8 0 -21 -8
-28 -18 -7 -10 -40 -35 -73 -56 -33 -21 -72 -47 -87 -57 -15 -11 -29 -19 -32
-19 -2 0 -25 -9 -50 -20 -26 -11 -48 -18 -50 -17 -1 1 -9 -3 -17 -9 -16 -13
-151 -55 -254 -79 -5 -2 -37 -8 -70 -14 -33 -6 -70 -13 -82 -15 -22 -5 -85
-11 -203 -22 -36 -3 -302 -7 -592 -8 l-528 -2 0 1148 0 1147 143 3 c208 4 792
0 937 -7z"/>
</g>
</svg>
