<?xml version="1.0" encoding="UTF-8" standalone="no"?>
<!-- Generator: Adobe Illustrator 20.0.0, SVG Export Plug-In . SVG Version: 6.00 Build 0)  -->

<svg
   xmlns:dc="http://purl.org/dc/elements/1.1/"
   xmlns:cc="http://creativecommons.org/ns#"
   xmlns:rdf="http://www.w3.org/1999/02/22-rdf-syntax-ns#"
   xmlns:svg="http://www.w3.org/2000/svg"
   xmlns="http://www.w3.org/2000/svg"
   xmlns:sodipodi="http://sodipodi.sourceforge.net/DTD/sodipodi-0.dtd"
   xmlns:inkscape="http://www.inkscape.org/namespaces/inkscape"
   version="1.1"
   id="Layer_1"
   x="0px"
   y="0px"
   viewBox="0 0 2559.9999 289.70033"
   enable-background="new 0 0 2660.799 1059.258"
   xml:space="preserve"
   sodipodi:docname="1497458525.svg"
   width="2560"
   height="289.70035"
   inkscape:version="0.92.3 (2405546, 2018-03-11)"><metadata
   id="metadata97"><rdf:RDF><cc:Work
       rdf:about=""><dc:format>image/svg+xml</dc:format><dc:type
         rdf:resource="http://purl.org/dc/dcmitype/StillImage" /></cc:Work></rdf:RDF></metadata><defs
   id="defs95">
	
	

		
		
		
		
		
		
		
		
		
		
		
		
		
		
		
		
		
		
		
		
		
	</defs><sodipodi:namedview
   pagecolor="#ffffff"
   bordercolor="#666666"
   borderopacity="1"
   objecttolerance="10"
   gridtolerance="10"
   guidetolerance="10"
   inkscape:pageopacity="0"
   inkscape:pageshadow="2"
   inkscape:window-width="1831"
   inkscape:window-height="1167"
   id="namedview93"
   showgrid="false"
   inkscape:zoom="0.15859897"
   inkscape:cx="444.56006"
   inkscape:cy="489.60801"
   inkscape:window-x="78"
   inkscape:window-y="-11"
   inkscape:window-maximized="1"
   inkscape:current-layer="Layer_1" />
<path
   d="m 2077.7436,0.01213158 c -3.7674,0.0786 -7.5813,0.54105 -11.3946,1.41992002 -21.925,4.63 -40.0833,23.4703404 -43.5273,45.6523404 -0.398,6.935 -0.4918,13.91852 0.1152,20.85352 6.528,33.232998 40.2147,51.726828 67.8907,44.673828 30.743,-6.264 51.0125,-37.496418 43.2695,-69.607418 -5.8774,-25.31988 -29.9822,-43.54240042 -56.3535,-42.99219042 z m -1596.73636,0.008 c -4.05796,-0.0494 -8.18806,0.34214 -12.33594,1.21289002 -61.44,11.9750004 -58.29106,99.6312784 -1.41406,111.1132784 34.755,9.262 73.24472,-19.500108 69.76172,-60.537108 -2.73088,-29.547 -27.60599,-51.44357042 -56.01172,-51.78906042 z M 2077.2631,5.2564616 c 18.8322,-0.51797 37.7376,9.8193104 46.3125,29.0585904 15.142,31.141 -10.7539,70.063218 -44.3808,68.449218 -40.5681,1.753 -65.4844,-49.187218 -37.1524,-80.574218 9.4843,-11.14262 22.3355,-16.5791904 35.2207,-16.9335904 z m -1597.71484,0.0156 c 6.80793,-0.0272 14.04825,1.40178 21.52343,4.65039 12.893,5.9580004 22.66488,17.8648204 26.42188,31.5078204 1.556,4.241 1.05219,8.83072 1.24219,13.26172 1.514,31.54 -33.26543,56.293678 -61.85743,46.429678 -16.48,-4.533998 -29.85565,-18.404508 -33.97265,-34.978508 -8.957,-26.82628 13.84073,-60.7401604 46.64258,-60.8711004 z M 2559.9975,12.760352 c -6.518,37.189 -26.9562,66.09045 -38.6602,77.06445 -93.209,99.567998 -277.4332,14.879648 -362.2422,29.097648 -44.703,5.688 -87.3761,29.43388 -93.9511,34.29688 0.512,0.398 1.0332,0.34923 1.5742,-0.13477 13.813,-8.944 62.1569,-14.92926 76.9609,-14.44726 -0.579,-0.294 -1.1284,-0.58047 -1.6504,-0.85547 12.76,0.266 25.5389,0.20006 38.2989,0.0391 -0.474,0.266 -0.9277,0.53999 -1.3457,0.83399 2.414,-0.18 24.9226,0.87867 35.9746,2.51367 97.045,10.503 121.2264,22.79072 158.3144,27.63672 45.435,4.164 87.1688,1.54253 124.6328,-28.48047 47.042,-36.149 62.3248,-106.686448 62.0938,-127.564448 z M 0.08731594,16.478922 C -1.4736841,37.813922 17.817426,109.66503 64.249428,142.64103 c 83.787002,63.482 196.831762,-1.28167 274.009762,-1.13867 1.314,0.028 34.87163,-3.30889 41.64063,-2.83789 -0.484,-0.304 -0.96936,-0.59805 -1.44336,-0.87305 32.529,1.09901 79.78184,-1.02754 116.46484,15.93946 -7.609,-5.588 -16.35559,-9.29719 -24.80859,-13.36719 -106.274,-50.260998 -173.8648,-2.43316 -269.3418,-1.78516 -73.084,0.527 -44.92384,-0.53706 -67.33984,-2.03906 C 53.851068,124.43147 10.721316,72.893922 0.08731594,16.478922 Z M 1776.3373,18.160572 c -58.1203,0.40125 -117.8764,15.7612 -162.9668,48.0957 -104.234,66.808998 -187.3496,69.929308 -216.7636,64.445308 -47.815,-4.77 -74.0962,-24.7387 -80.3282,-28.4707 4.108,6.49 10.0566,11.49848 15.4356,16.89648 47.76,43.776 115.3803,46.56471 177.1933,27.22071 116.132,-36.144 168.4617,-136.113238 331.3887,-120.365238 4.194,0.807 8.483,1.23489 12.752,0.71289 -24.2116,-5.80875 -50.2926,-8.71754 -76.711,-8.53515 z m -995.72654,0.0234 c -47.56395,-0.2321 -89.2244,8.83394 -112.20508,19.06055 156.679,-44.0500004 245.93675,38.70289 306.34371,75.337888 133.49201,76.637 232.11351,43.1222 267.93751,-10.2168 -86.95,59.969 -219.1365,19.41824 -305.51755,-42.009758 -48.60384,-31.14066 -105.92601,-41.9248 -156.55859,-42.17188 z m 1740.00784,2.8086 c -35.5003,0.67523 -95.7573,26.88359 -120.4707,31.61328 -30.316,4.101 -37.2761,-0.38547 -56.9531,0.64453 11.5909,13.217 53.7795,32.52542 105.3945,6.35742 16.61,-8.141 47.8942,-32.97848 78.7812,-38.39648 -2.1287,-0.19588 -4.3852,-0.26377 -6.7519,-0.21875 z m -2479.8223,0.0605 c -0.974981,0.008 -1.879374,0.0515 -2.703124,0.13086 48.742002,9.262 73.568504,51.25147 132.062504,51.85547 31.277,-2.288 48.08276,-14.52876 52.63476,-20.63476 -66.503,7.93 -79.31756,-8.33593 -124.851562,-20.79493 -12.02344,-3.16218 -42.51785,-10.67634 -57.142578,-10.55664 z m 859.88672,1.07032 c -1.2509,0.004 -2.35503,0.0622 -3.29297,0.17968 2.002,0.863 4.09742,1.57447 6.23242,2.10547 55.25202,13.593 103.39913,57.43777 153.16213,76.134768 97.279,34.857 155.6546,-15.470348 161.5586,-23.527348 -125.018,15.541 -150.3028,-20.67584 -233.50981,-39.58984 -13.7719,-3.37219 -65.38691,-15.36509 -84.15037,-15.30273 z m 757.80468,0.13672 c -17.6623,0.22455 -73.3694,8.69859 -157.8437,38.63671 -88.371,30.724 -106.9608,17.37555 -159.6328,16.18555 9.125,11.57 41.7044,31.315688 79.7324,35.054688 116.491,0.41 127.5412,-50.651798 222.8652,-84.341798 5.844,-2.229 12.1224,-3.04366 17.9004,-5.47265 -0.8366,-0.0544 -1.844,-0.0775 -3.0215,-0.0625 z m -1005.80077,0.30859 c -17.615,0.984 -121.64335,38.35776 -137.52735,135.884758 5.526,-7.531 45.69707,-88.634918 115.91407,-126.169918 6.916,-3.861 14.47928,-6.30884 21.61328,-9.71484 z m 1258.74417,1.32812 c 2.676,1.945 5.7115,3.29144 8.7285,4.64844 71.519,32.404 116.6142,118.817188 122.4902,127.367188 1.156,-8.469 -10.0125,-51.01294 -43.6035,-82.710938 -34.347,-33.389 -81.9012,-49.30469 -87.6152,-49.30469 z M 737.00138,41.387132 c -10.27847,0.0851 -21.27008,0.69517 -33.13086,1.87305 4.99,2.599 10.68131,2.31437 16.07031,3.23437 155.596,25.11 198.94986,156.521328 361.25587,137.861328 7.798,0.076 15.3104,-2.3528 23.1094,-2.4668 -20.497,-2.474 -53.757,8.18411 -130.33601,-34.08789 C 868.98379,88.817912 836.35994,40.564732 737.00138,41.387132 Z m 1080.72462,0.29883 c -56.1738,0.16808 -83.2543,10.69218 -163.8809,63.089838 -52.932,34.251 -102.0812,69.6528 -165.6562,76.4668 -10.683,0.512 -21.3658,-0.008 -32.0488,0.0957 -0.01,0.227 -0.027,0.68239 -0.037,0.90039 6.876,-0.507 53.7573,8.80613 85.5273,0.70313 126.068,-19.721 169.505,-122.735208 308.125,-137.783208 4.335,-0.93 8.738,-1.60311 13.207,-1.53711 3.52,-0.209 7.1825,1.00597 10.6075,-0.33203 -22.1045,-0.88484 -40.1151,-1.65058 -55.8438,-1.60351 z m 412.2969,0.59765 c -24.204,47.349 -42.4032,47.86211 -47.9492,51.28711 18.701,11.707998 113.2833,7.025698 143.1543,-0.0293 -5.703,-3.57099 -74.7581,-23.24381 -95.2051,-51.25781 z m -1900.97464,0.0469 c -18.907,23.888 -70.97324,43.31875 -96.11524,50.71875 27.575,7.981998 112.58561,11.376258 143.59961,1.69726 0.066,-0.759 0.12322,-1.50728 0.19922,-2.23828 -21.467,-4.331 -37.20659,-30.13573 -47.68359,-50.17773 z m 343.70507,30.83789 c -58.44053,-0.003 -105.75461,26.54437 -143.85742,73.265618 4.753,-3.074 8.98364,-6.84992 13.55664,-10.16992 68.571,-49.198998 144.26441,-41.847198 159.56641,-38.033198 133.084,19.245998 248.85283,185.496718 403.42584,104.804688 6.6789,-3.718 13.8885,-6.75461 19.6855,-11.84961 -8.701,2.776 -23.8467,12.48076 -60.1777,16.38476 -43.717,7.007 -126.61042,-6.0637 -225.35942,-70.5957 -15.663,-10.098 -74.41096,-58.698168 -155.00196,-63.451168 -3.9955,-0.23813 -7.94185,-0.35525 -11.83789,-0.35547 z m 1212.22467,0.11914 c -54.3697,0.4756 -108.7614,22.88989 -150.9278,53.849608 -190.266,132.066 -291.4989,64.74286 -300.3379,64.38086 103.302,66.194 189.9056,25.40422 316.4766,-52.42578 157.504,-97.655998 267.1179,-1.04983 275.2519,2.82617 -3.186,-6.888 -46.7169,-56.173738 -110.3359,-66.552738 -9.9891,-1.50172 -20.0585,-2.1662 -30.1269,-2.07812 z m -589.7696,29.904298 c 15.389,34.716 82.9555,102.49806 123.1055,106.66406 -54.879,-26.684 -84.4375,-57.67106 -123.1055,-106.66406 z m -39.3535,0.85351 c -57.389,74.015 -91.4503,89.61289 -122.6133,105.96289 43.114,-7.461 108.3813,-71.73889 122.6133,-105.96289 z m 14.4863,44.29688 c -0.6327,-0.006 -1.2688,-0.004 -1.9062,0.008 -47.179,3.485 -70.2721,37.66167 -69.9961,72.38867 2.507,47.787 45.28,76.12571 85.375,67.38671 34.762,-7.109 56.9248,-39.21491 55.9648,-69.29491 0.9086,-36.05766 -29.5731,-70.13234 -69.4375,-70.48828 z m -2.1172,6.33593 c 17.0126,-0.33389 34.2162,6.26313 46.4239,20.3125 41.294,45.553 -5.6199,117.07436 -63.0899,98.60936 -37.624,-11.18498 -56.1898,-57.05192 -32.8828,-91.83592 11.2333,-17.42712 30.268,-26.70752 49.5488,-27.08594 z"
   id="path46"
   inkscape:connector-curvature="0" />
</svg>